<svg width="32" height="32" viewBox="0 0 32 32" fill="none" xmlns="http://www.w3.org/2000/svg">
<path d="M21.0128 31.4608V21.064H24.9056V17.1696H21.0128V14.3888C21.0128 13.4089 21.5528 12.72 22.3328 12.72H24.9052L24.9146 8.84952L24.1452 8.81827C23.8512 8.80632 23.5317 8.80001 23.2104 8.80001C21.3181 8.80001 19.8725 9.01932 19.0484 9.454C17.3235 10.3651 16.96 11.7086 16.9776 16.3702L16.9792 17.1696H13.7808V21.064H17.1184V31.4608H5.73117C2.96397 31.4608 0.712769 29.2144 0.712769 26.4528V5.54801C0.712769 2.78641 2.96397 0.540009 5.73117 0.540009H26.6888C29.4552 0.540009 31.7064 2.78641 31.7064 5.54801V26.4536C31.7064 29.2152 29.4552 31.4608 26.6888 31.4608H21.0128Z" fill="#FFB800"/>
</svg>
