<svg width="189" height="48" viewBox="0 0 189 48" fill="none" xmlns="http://www.w3.org/2000/svg">
<path d="M55.2286 24.6045C55.5044 24.6045 55.687 24.5616 55.7762 24.476C55.8654 24.3904 55.9101 24.2151 55.9101 23.9502V22.2676H49.0705V18.3883H60.5833V25.2588C60.5833 26.4273 60.3278 27.2608 59.8165 27.7592C59.3054 28.2579 58.4332 28.5071 57.2 28.5071H43.0827C41.8171 28.5071 40.8922 28.2189 40.3079 27.6425C39.7238 27.066 39.4317 26.1858 39.4317 25.0018V15.6542C39.4317 14.4702 39.7238 13.5899 40.3079 13.0135C40.8921 12.4371 41.817 12.1489 43.0827 12.1489H59.9748V16.0515H44.8353C44.5595 16.0515 44.3688 16.106 44.2633 16.2151C44.1579 16.3242 44.1052 16.5111 44.1052 16.776V23.8801C44.1052 24.145 44.1579 24.3319 44.2633 24.441C44.3687 24.5501 44.5595 24.6046 44.8353 24.6046H55.2285L55.2286 24.6045Z" fill="white"/>
<path d="M67.4916 28.5069C66.2259 28.5069 65.297 28.2187 64.7047 27.6423C64.1124 27.0659 63.8163 26.1856 63.8163 25.0016V15.654C63.8163 14.4701 64.1124 13.5898 64.7047 13.0134C65.297 12.437 66.2259 12.1487 67.4916 12.1487H81.2439C82.5095 12.1487 83.4385 12.437 84.0308 13.0134C84.6231 13.5898 84.9192 14.4701 84.9192 15.654V25.0016C84.9192 26.1856 84.6231 27.0659 84.0308 27.6423C83.4385 28.2187 82.5095 28.5069 81.2439 28.5069H67.4916ZM80.2458 16.7757C80.2458 16.5108 80.1931 16.3239 80.0876 16.2148C79.9822 16.1057 79.7915 16.0512 79.5155 16.0512H69.2197C68.944 16.0512 68.7533 16.1057 68.6477 16.2148C68.5423 16.3239 68.4895 16.5108 68.4895 16.7757V23.8798C68.4895 24.1447 68.5422 24.3316 68.6477 24.4407C68.7531 24.5498 68.9438 24.6043 69.2197 24.6043H79.5155C79.7913 24.6043 79.982 24.5498 80.0876 24.4407C80.193 24.3316 80.2458 24.1447 80.2458 23.8798V16.7757Z" fill="white"/>
<path d="M108.622 28.5069H88.3953V12.1487H93.0687V24.6045H108.622V28.5069Z" fill="white"/>
<path d="M111.441 12.1487H116.114V28.5069H111.441V12.1487Z" fill="white"/>
<path d="M136.142 28.507V22.2675H126.409V18.3882H136.142V16.7758C136.142 16.5109 136.085 16.324 135.971 16.2148C135.858 16.1059 135.663 16.0512 135.387 16.0512H125.44V12.1486H137.14C138.405 12.1486 139.334 12.4368 139.927 13.0132C140.519 13.5897 140.815 14.4699 140.815 15.6539V28.5068H136.142V28.507Z" fill="white"/>
<path d="M164.688 16.0514H156.461V28.5069H151.788V16.0514H143.537V12.1487H164.688V16.0514Z" fill="white"/>
<path d="M184.326 22.2908H172.181V28.5069H167.507V12.1487H172.181V18.3883H184.326V12.1487H189V28.5069H184.326V22.2908Z" fill="white"/>
<path fill-rule="evenodd" clip-rule="evenodd" d="M13.2313 5.81319V11.5531L16.057 13.7835V0L0.00125122 12.6308L1.86898 36.87L16.057 47.9997V24.9427L6.03863 17.1003L6.33617 20.9601L13.2313 26.4024V42.1443L4.58378 35.3188L2.93621 13.939L13.2313 5.81319Z" fill="#DCB000"/>
<path fill-rule="evenodd" clip-rule="evenodd" d="M21.7279 5.81349V11.5533L18.9023 13.7838V0.000305176L34.9579 12.6311L33.0902 36.8703L18.9023 48V24.9429L28.9205 17.1006L28.6231 20.9604L21.7279 26.4027V42.1446L30.3755 35.3191L32.023 13.9393L21.7279 5.81349Z" fill="white"/>
<path d="M55.1873 36.0095V31.7115H55.6292H56.965C57.4494 31.7115 57.8173 31.8262 58.0699 32.0557C58.3224 32.2841 58.4487 32.6183 58.4487 33.0573C58.4487 33.5222 58.3224 33.8744 58.0699 34.1158C57.8173 34.3563 57.4494 34.4769 56.966 34.4769C56.6226 34.4749 56.3258 34.4769 56.0751 34.483V36.0095H55.6332H55.1873ZM56.0751 33.7347H56.815C57.0637 33.7347 57.2501 33.6789 57.3743 33.5682C57.4986 33.4574 57.5608 33.2898 57.5608 33.0663C57.5608 32.8618 57.4986 32.7091 57.3743 32.6074C57.2501 32.5046 57.0635 32.4537 56.815 32.4537H56.0751V33.7347Z" fill="#DCB000"/>
<path d="M59.1355 36.0095V31.7115H59.5774H61.2773C61.6827 31.7115 62.0083 31.8212 62.2559 32.0407C62.5035 32.2603 62.6277 32.5495 62.6277 32.9098C62.6277 33.3228 62.4896 33.6262 62.2144 33.8166C62.1414 33.8676 62.0585 33.9104 61.9658 33.9463C62.018 33.9672 62.0655 33.9912 62.1078 34.0161C62.3505 34.1618 62.4768 34.4083 62.4857 34.7524L62.5064 35.4569C62.5103 35.5976 62.5251 35.6974 62.5498 35.7551C62.5744 35.814 62.6228 35.8608 62.6939 35.8958V36.0095H61.7142C61.6906 35.9646 61.6709 35.8688 61.6531 35.7222C61.6363 35.5745 61.6265 35.4168 61.6244 35.2474L61.6185 34.8503C61.6145 34.6578 61.5583 34.52 61.4498 34.4382C61.3414 34.3564 61.1608 34.3155 60.9082 34.3155H60.0233V36.0097H59.5814H59.1355V36.0095ZM60.0233 33.591H61.0523C61.2812 33.591 61.4538 33.5441 61.5682 33.4493C61.6827 33.3545 61.7399 33.2119 61.7399 33.0202C61.7399 32.8317 61.6856 32.6899 61.5761 32.5952C61.4676 32.5004 61.3049 32.4534 61.0867 32.4534H60.0233V33.5907V33.591Z" fill="#DCB000"/>
<path d="M65.2618 36.1293C64.6374 36.1293 64.1411 35.9277 63.7731 35.5236C63.4052 35.1195 63.2206 34.5728 63.2206 33.8844C63.2206 33.1821 63.4052 32.6244 63.7731 32.2113C64.141 31.7983 64.6372 31.5918 65.2618 31.5918C65.8893 31.5918 66.3874 31.7983 66.7544 32.2113C67.1215 32.6244 67.3048 33.1821 67.3048 33.8844C67.3048 34.5728 67.1213 35.1197 66.7544 35.5236C66.3874 35.9277 65.8893 36.1293 65.2618 36.1293ZM65.2618 35.369C65.6238 35.369 65.9069 35.2373 66.1112 34.9739C66.3154 34.7116 66.417 34.3464 66.417 33.8784C66.417 33.4005 66.3154 33.0273 66.1112 32.757C65.9069 32.4867 65.6238 32.352 65.2618 32.352C64.9007 32.352 64.6185 32.4867 64.4143 32.757C64.21 33.0273 64.1084 33.4005 64.1084 33.8784C64.1084 34.3463 64.21 34.7114 64.4133 34.9739C64.6165 35.2373 64.8987 35.369 65.2616 35.369H65.2618Z" fill="#DCB000"/>
<path d="M68.0142 36.0095V31.7115H68.4562H69.8323C70.4163 31.7115 70.8603 31.8851 71.1631 32.2322C71.4669 32.5785 71.6189 33.0862 71.6189 33.7557C71.6189 34.492 71.4611 35.0517 71.1463 35.4349C70.8307 35.818 70.3689 36.0095 69.7602 36.0095H68.456H68.0141H68.0142ZM68.9021 35.2673H69.6509C70.0109 35.2673 70.2813 35.1446 70.4609 34.8982C70.6414 34.6517 70.7312 34.2826 70.7312 33.7907C70.7312 33.3448 70.6474 33.0105 70.4797 32.788C70.3119 32.5655 70.0604 32.4537 69.723 32.4537H68.9022V35.2671L68.9021 35.2673Z" fill="#DCB000"/>
<path d="M75.6983 34.3912C75.7004 35.0057 75.5671 35.4488 75.2979 35.721C75.0285 35.9934 74.5905 36.1291 73.9837 36.1291C73.4006 36.1291 72.9697 35.9874 72.6885 35.7032C72.4083 35.4198 72.2673 34.9818 72.2652 34.3912V31.7114H72.7082H73.153V34.4201C73.153 34.7284 73.2221 34.9599 73.3602 35.1135C73.4973 35.2681 73.7055 35.345 73.9837 35.345C74.2807 35.345 74.4928 35.2741 74.62 35.1325C74.7473 34.9918 74.8104 34.7544 74.8104 34.4201V31.7114H75.2533H75.6982V34.3912H75.6983Z" fill="#DCB000"/>
<path d="M80.1625 34.5069C80.1082 35.0038 79.9168 35.3989 79.5864 35.6912C79.2558 35.9835 78.8356 36.1291 78.3245 36.1291C77.7277 36.1291 77.2532 35.9276 76.9019 35.5235C76.5498 35.1194 76.3741 34.5726 76.3741 33.8833C76.3741 33.1809 76.5498 32.6231 76.9019 32.2111C77.2532 31.7982 77.7277 31.5916 78.3245 31.5916C78.8297 31.5916 79.2469 31.7292 79.5785 32.0046C79.9099 32.2799 80.1044 32.6531 80.1625 33.124H79.2745C79.2459 32.8925 79.1472 32.71 78.9786 32.5733C78.8098 32.4376 78.5948 32.3699 78.3353 32.3699C78.0058 32.3699 77.7474 32.5035 77.5599 32.77C77.3735 33.0363 77.2798 33.4055 77.2798 33.8784C77.2798 34.3383 77.3725 34.6994 77.5589 34.9599C77.7443 35.2204 78.0039 35.351 78.3353 35.351C78.5948 35.351 78.8098 35.2751 78.9786 35.1235C79.1472 34.9708 79.2459 34.7663 79.2745 34.5069H80.1625Z" fill="#DCB000"/>
<path d="M84.4371 34.5069C84.3828 35.0038 84.1914 35.3989 83.861 35.6912C83.5305 35.9835 83.1103 36.1291 82.5991 36.1291C82.0023 36.1291 81.5278 35.9276 81.1766 35.5235C80.8244 35.1194 80.6488 34.5726 80.6488 33.8833C80.6488 33.1809 80.8244 32.6231 81.1766 32.2111C81.5278 31.7982 82.0023 31.5916 82.5991 31.5916C83.1043 31.5916 83.5216 31.7292 83.8531 32.0046C84.1845 32.2799 84.379 32.6531 84.4371 33.124H83.5492C83.5205 32.8925 83.4218 32.71 83.2532 32.5733C83.0844 32.4376 82.8694 32.3699 82.61 32.3699C82.2804 32.3699 82.022 32.5035 81.8346 32.77C81.6481 33.0363 81.5544 33.4055 81.5544 33.8784C81.5544 34.3383 81.6471 34.6994 81.8335 34.9599C82.019 35.2204 82.2785 35.351 82.61 35.351C82.8694 35.351 83.0844 35.2751 83.2532 35.1235C83.4218 34.9708 83.5205 34.7663 83.5492 34.5069H84.4371Z" fill="#DCB000"/>
<path d="M85.0418 36.0095V31.7114H85.4848H85.9298V36.0095H85.4878H85.0418Z" fill="#DCB000"/>
<path d="M88.6092 36.1293C87.9848 36.1293 87.4886 35.9277 87.1205 35.5236C86.7526 35.1195 86.5681 34.5728 86.5681 33.8844C86.5681 33.1821 86.7526 32.6244 87.1205 32.2113C87.4884 31.7983 87.9846 31.5918 88.6092 31.5918C89.2367 31.5918 89.7348 31.7983 90.1019 32.2113C90.4689 32.6244 90.6523 33.1821 90.6523 33.8844C90.6523 34.5728 90.4688 35.1197 90.1019 35.5236C89.7348 35.9277 89.2367 36.1293 88.6092 36.1293ZM88.6092 35.369C88.9713 35.369 89.2544 35.2373 89.4586 34.9739C89.6629 34.7116 89.7645 34.3464 89.7645 33.8784C89.7645 33.4005 89.6629 33.0273 89.4586 32.757C89.2544 32.4867 88.9713 32.352 88.6092 32.352C88.2482 32.352 87.966 32.4867 87.7617 32.757C87.5575 33.0273 87.4559 33.4005 87.4559 33.8784C87.4559 34.3463 87.5575 34.7114 87.7607 34.9739C87.9639 35.2373 88.2461 35.369 88.6091 35.369H88.6092Z" fill="#DCB000"/>
<path d="M92.1487 36.0095H91.7364H91.3201V31.7114H91.7848H92.2505L93.9541 34.7294V31.7114H94.3676H94.7828V36.0095H94.3409H93.8989L92.1487 32.9107V36.0095Z" fill="#DCB000"/>
<path d="M95.6363 36.0095V31.7114H98.7617V32.0895V32.4716H96.5241V33.3816H98.6018V33.7507V34.1238H96.5241V35.2493H98.8622V35.6274V36.0095H95.6363Z" fill="#DCB000"/>
<path d="M101.886 32.9984C101.871 32.7939 101.782 32.6322 101.621 32.5135C101.459 32.3938 101.249 32.334 100.989 32.334C100.764 32.334 100.588 32.3839 100.461 32.4846C100.334 32.5844 100.271 32.7251 100.271 32.9036C100.271 33.0324 100.337 33.132 100.47 33.2019C100.601 33.2717 100.88 33.3545 101.306 33.4504C101.923 33.5911 102.337 33.7527 102.545 33.9363C102.753 34.1179 102.858 34.4102 102.858 34.8123C102.858 35.2153 102.701 35.5366 102.386 35.773C102.072 36.0104 101.647 36.1291 101.111 36.1291C100.574 36.1291 100.154 36.0033 99.8516 35.752C99.5489 35.5016 99.3869 35.1434 99.3662 34.6806H100.225C100.233 34.907 100.315 35.0816 100.469 35.2034C100.623 35.3261 100.837 35.3869 101.112 35.3869C101.395 35.3869 101.615 35.341 101.773 35.2483C101.932 35.1555 102.011 35.0278 102.011 34.8641C102.011 34.7015 101.954 34.5828 101.84 34.5069C101.728 34.431 101.489 34.3523 101.124 34.2705C100.452 34.1179 100.002 33.9532 99.7747 33.7756C99.5489 33.6001 99.4363 33.3257 99.4363 32.9525C99.4363 32.5354 99.5852 32.2042 99.8842 31.9588C100.182 31.7145 100.586 31.5916 101.094 31.5916C101.568 31.5916 101.955 31.7183 102.254 31.9717C102.552 32.225 102.718 32.5673 102.75 32.9983H101.886V32.9984Z" fill="#DCB000"/>
<path d="M106.302 34.3922L104.819 31.7114H105.346H105.875L106.758 33.5722L106.757 33.5801L107.589 31.7114H108.091H108.594L107.19 34.3752V36.0095H106.748H106.302V34.3922Z" fill="#DCB000"/>
<path d="M110.77 36.0095V31.7115H111.212H112.911C113.317 31.7115 113.642 31.8212 113.89 32.0407C114.138 32.2603 114.262 32.5495 114.262 32.9098C114.262 33.3228 114.124 33.6262 113.849 33.8166C113.776 33.8676 113.693 33.9104 113.6 33.9463C113.652 33.9672 113.7 33.9912 113.742 34.0161C113.985 34.1618 114.111 34.4083 114.12 34.7524L114.141 35.4569C114.145 35.5976 114.159 35.6974 114.184 35.7551C114.209 35.814 114.257 35.8608 114.328 35.8958V36.0095H113.348C113.325 35.9646 113.305 35.8688 113.287 35.7222C113.27 35.5745 113.261 35.4168 113.259 35.2474L113.253 34.8503C113.249 34.6578 113.193 34.52 113.084 34.4382C112.976 34.3564 112.795 34.3155 112.542 34.3155H111.658V36.0097H111.216H110.77V36.0095ZM111.658 33.591H112.686C112.915 33.591 113.088 33.5441 113.202 33.4493C113.317 33.3545 113.374 33.2119 113.374 33.0202C113.374 32.8317 113.32 32.6899 113.21 32.5952C113.102 32.5004 112.939 32.4534 112.721 32.4534H111.658V33.5907V33.591Z" fill="#DCB000"/>
<path d="M115.044 36.0095V31.7114H118.17V32.0895V32.4716H115.932V33.3816H118.01V33.7507V34.1238H115.932V35.2493H118.27V35.6274V36.0095H115.044Z" fill="#DCB000"/>
<path d="M118.992 36.0095V31.7115H119.434H120.77C121.255 31.7115 121.622 31.8262 121.875 32.0557C122.128 32.2841 122.254 32.6183 122.254 33.0573C122.254 33.5222 122.128 33.8744 121.875 34.1158C121.622 34.3563 121.255 34.4769 120.771 34.4769C120.428 34.4749 120.131 34.4769 119.88 34.483V36.0095H119.438H118.992ZM119.88 33.7347H120.62C120.869 33.7347 121.055 33.6789 121.18 33.5682C121.304 33.4574 121.366 33.2898 121.366 33.0663C121.366 32.8618 121.304 32.7091 121.18 32.6074C121.055 32.5046 120.869 32.4537 120.62 32.4537H119.88V33.7347Z" fill="#DCB000"/>
<path d="M122.941 36.0095V31.7115H123.382H125.082C125.488 31.7115 125.813 31.8212 126.061 32.0407C126.309 32.2603 126.433 32.5495 126.433 32.9098C126.433 33.3228 126.295 33.6262 126.019 33.8166C125.946 33.8676 125.864 33.9104 125.771 33.9463C125.823 33.9672 125.871 33.9912 125.913 34.0161C126.156 34.1618 126.282 34.4083 126.291 34.7524L126.311 35.4569C126.315 35.5976 126.33 35.6974 126.355 35.7551C126.379 35.814 126.428 35.8608 126.499 35.8958V36.0095H125.519C125.496 35.9646 125.476 35.8688 125.458 35.7222C125.441 35.5745 125.432 35.4168 125.429 35.2474L125.423 34.8503C125.42 34.6578 125.363 34.52 125.255 34.4382C125.146 34.3564 124.966 34.3155 124.713 34.3155H123.828V36.0097H123.386H122.941V36.0095ZM123.828 33.591H124.857C125.086 33.591 125.259 33.5441 125.373 33.4493C125.488 33.3545 125.545 33.2119 125.545 33.0202C125.545 32.8317 125.491 32.6899 125.381 32.5952C125.273 32.5004 125.11 32.4534 124.892 32.4534H123.828V33.5907V33.591Z" fill="#DCB000"/>
<path d="M127.215 36.0095V31.7114H130.34V32.0895V32.4716H128.103V33.3816H130.181V33.7507V34.1238H128.103V35.2493H130.441V35.6274V36.0095H127.215Z" fill="#DCB000"/>
<path d="M133.465 32.9984C133.45 32.7939 133.361 32.6322 133.2 32.5135C133.038 32.3938 132.828 32.334 132.568 32.334C132.343 32.334 132.167 32.3839 132.04 32.4846C131.913 32.5844 131.85 32.7251 131.85 32.9036C131.85 33.0324 131.916 33.132 132.049 33.2019C132.18 33.2717 132.459 33.3545 132.885 33.4504C133.502 33.5911 133.916 33.7527 134.124 33.9363C134.332 34.1179 134.437 34.4102 134.437 34.8123C134.437 35.2153 134.28 35.5366 133.965 35.773C133.651 36.0104 133.226 36.1291 132.69 36.1291C132.153 36.1291 131.733 36.0033 131.431 35.752C131.128 35.5016 130.966 35.1434 130.945 34.6806H131.804C131.812 34.907 131.894 35.0816 132.048 35.2034C132.202 35.3261 132.416 35.3869 132.691 35.3869C132.974 35.3869 133.194 35.341 133.352 35.2483C133.511 35.1555 133.59 35.0278 133.59 34.8641C133.59 34.7015 133.533 34.5828 133.419 34.5069C133.307 34.431 133.068 34.3523 132.703 34.2705C132.031 34.1179 131.581 33.9532 131.354 33.7756C131.128 33.6001 131.015 33.3257 131.015 32.9525C131.015 32.5354 131.164 32.2042 131.463 31.9588C131.761 31.7145 132.165 31.5916 132.673 31.5916C133.147 31.5916 133.534 31.7183 133.833 31.9717C134.131 32.225 134.297 32.5673 134.329 32.9983H133.465V32.9984Z" fill="#DCB000"/>
<path d="M135.112 36.0095V31.7114H138.237V32.0895V32.4716H135.999V33.3816H138.077V33.7507V34.1238H135.999V35.2493H138.337V35.6274V36.0095H135.112Z" fill="#DCB000"/>
<path d="M139.847 36.0095H139.434H139.018V31.7114H139.483H139.949L141.652 34.7294V31.7114H142.066H142.481V36.0095H142.039H141.597L139.847 32.9107V36.0095Z" fill="#DCB000"/>
<path d="M144.252 36.0095V32.4716H142.967V32.0926V31.7114H146.424V32.0895V32.4716H145.14V36.0095H144.698H144.252Z" fill="#DCB000"/>
<path d="M146.618 36.0095L148.121 31.7115H148.636H149.151L150.654 36.0095H150.184H149.713L149.426 35.1356H147.813L147.535 36.0095H147.078H146.618H146.618ZM148.624 32.6672L148.06 34.3932H149.187L148.624 32.6672H148.624Z" fill="#DCB000"/>
<path d="M154.823 34.5069C154.769 35.0038 154.578 35.3989 154.247 35.6912C153.917 35.9835 153.497 36.1291 152.986 36.1291C152.389 36.1291 151.914 35.9276 151.563 35.5235C151.211 35.1194 151.035 34.5726 151.035 33.8833C151.035 33.1809 151.211 32.6231 151.563 32.2111C151.914 31.7982 152.389 31.5916 152.986 31.5916C153.491 31.5916 153.908 31.7292 154.24 32.0046C154.571 32.2799 154.765 32.6531 154.823 33.124H153.936C153.907 32.8925 153.808 32.71 153.64 32.5733C153.471 32.4376 153.256 32.3699 152.996 32.3699C152.667 32.3699 152.408 32.5035 152.221 32.77C152.035 33.0363 151.941 33.4055 151.941 33.8784C151.941 34.3383 152.033 34.6994 152.22 34.9599C152.405 35.2204 152.665 35.351 152.996 35.351C153.256 35.351 153.471 35.2751 153.64 35.1235C153.808 34.9708 153.907 34.7663 153.936 34.5069H154.823Z" fill="#DCB000"/>
<path d="M155.428 36.0095V31.7114H155.871H156.316V36.0095H155.874H155.428Z" fill="#DCB000"/>
<path d="M158.995 36.1293C158.371 36.1293 157.875 35.9277 157.507 35.5236C157.139 35.1195 156.954 34.5728 156.954 33.8844C156.954 33.1821 157.139 32.6244 157.507 32.2113C157.875 31.7983 158.371 31.5918 158.995 31.5918C159.623 31.5918 160.121 31.7983 160.488 32.2113C160.855 32.6244 161.039 33.1821 161.039 33.8844C161.039 34.5728 160.855 35.1197 160.488 35.5236C160.121 35.9277 159.623 36.1293 158.995 36.1293ZM158.995 35.369C159.358 35.369 159.641 35.2373 159.845 34.9739C160.049 34.7116 160.151 34.3464 160.151 33.8784C160.151 33.4005 160.049 33.0273 159.845 32.757C159.641 32.4867 159.358 32.352 158.995 32.352C158.634 32.352 158.352 32.4867 158.148 32.757C157.944 33.0273 157.842 33.4005 157.842 33.8784C157.842 34.3463 157.944 34.7114 158.147 34.9739C158.35 35.2373 158.632 35.369 158.995 35.369H158.995Z" fill="#DCB000"/>
<path d="M162.535 36.0095H162.123H161.706V31.7114H162.171H162.637L164.341 34.7294V31.7114H164.754H165.169V36.0095H164.727H164.285L162.535 32.9107V36.0095Z" fill="#DCB000"/>
<path d="M166.023 36.0095V31.7114H169.148V32.0895V32.4716H166.911V33.3816H168.988V33.7507V34.1238H166.911V35.2493H169.248V35.6274V36.0095H166.023Z" fill="#DCB000"/>
<path d="M172.272 32.9984C172.257 32.7939 172.169 32.6322 172.007 32.5135C171.845 32.3938 171.635 32.334 171.375 32.334C171.15 32.334 170.974 32.3839 170.848 32.4846C170.72 32.5844 170.657 32.7251 170.657 32.9036C170.657 33.0324 170.723 33.132 170.856 33.2019C170.988 33.2717 171.266 33.3545 171.692 33.4504C172.31 33.5911 172.723 33.7527 172.931 33.9363C173.139 34.1179 173.244 34.4102 173.244 34.8123C173.244 35.2153 173.087 35.5366 172.772 35.773C172.459 36.0104 172.033 36.1291 171.498 36.1291C170.96 36.1291 170.541 36.0033 170.238 35.752C169.935 35.5016 169.773 35.1434 169.752 34.6806H170.611C170.62 34.907 170.702 35.0816 170.855 35.2034C171.009 35.3261 171.223 35.3869 171.499 35.3869C171.781 35.3869 172.001 35.341 172.16 35.2483C172.319 35.1555 172.398 35.0278 172.398 34.8641C172.398 34.7015 172.34 34.5828 172.226 34.5069C172.114 34.431 171.876 34.3523 171.511 34.2705C170.838 34.1179 170.388 33.9532 170.161 33.7756C169.935 33.6001 169.823 33.3257 169.823 32.9525C169.823 32.5354 169.971 32.2042 170.27 31.9588C170.568 31.7145 170.972 31.5916 171.48 31.5916C171.954 31.5916 172.341 31.7183 172.64 31.9717C172.938 32.225 173.104 32.5673 173.136 32.9983H172.272V32.9984Z" fill="#DCB000"/>
<path d="M119.586 12.1487H124.26V28.5069H119.586V12.1487Z" fill="white"/>
</svg>
