<svg width="32" height="32" viewBox="0 0 32 32" fill="none" xmlns="http://www.w3.org/2000/svg">
<g clip-path="url(#clip0)">
<path d="M21.3334 16V15.9986C21.3334 13.0533 18.9454 10.6653 16 10.6653C13.0547 10.6653 10.6667 13.0533 10.6667 15.9986C10.6667 18.944 13.0547 21.332 16 21.332C17.472 21.332 18.8054 20.7346 19.7707 19.7706C20.7347 18.836 21.3334 17.528 21.3334 16.08C21.3334 16.052 21.3334 16.024 21.332 15.996V16H21.3334ZM24.2134 16C24.1974 20.5053 20.5414 24.152 16.0334 24.152C11.516 24.152 7.85336 20.4893 7.85336 15.972C7.85336 11.4546 11.516 7.79198 16.0334 7.79198C18.292 7.79198 20.3374 8.70798 21.8174 10.188C23.296 11.628 24.2147 13.6373 24.2147 15.8626C24.2147 15.9106 24.2147 15.96 24.2134 16.008V16.0013V16ZM26.4627 7.45865V7.46131C26.4627 8.52131 25.6027 9.38131 24.5427 9.38131C23.4827 9.38131 22.6227 8.52131 22.6227 7.46131C22.6227 6.40131 23.4827 5.54131 24.5427 5.54131C25.0734 5.54131 25.5534 5.75598 25.9 6.10398C26.2414 6.43865 26.4534 6.90531 26.4534 7.42131V7.45998V7.45865H26.4627ZM16.0094 2.87198L14.416 2.86131C13.4507 2.8542 12.7178 2.8542 12.2174 2.86131C11.7169 2.86843 11.0467 2.88931 10.2067 2.92398C9.42669 2.95065 8.68669 3.02798 7.96269 3.15065L8.06002 3.13731C7.49336 3.23065 6.99069 3.36398 6.50936 3.54131L6.56669 3.52265C5.17469 4.08931 4.09069 5.17198 3.53736 6.52798L3.52402 6.56398C3.36536 6.98798 3.23202 7.49065 3.14536 8.00798L3.13869 8.05731C3.02936 8.68265 2.95202 9.42265 2.92669 10.176L2.92536 10.204C2.89069 11.0449 2.8698 11.7151 2.86269 12.2146C2.85558 12.7142 2.85558 13.4471 2.86269 14.4133C2.8698 15.3795 2.87336 15.9106 2.87336 16.0066C2.87336 16.1026 2.8698 16.6338 2.86269 17.6C2.85558 18.5662 2.85558 19.2991 2.86269 19.7986C2.8698 20.2982 2.89069 20.9684 2.92536 21.8093C2.95202 22.5893 3.02936 23.3293 3.15202 24.0533L3.13869 23.956C3.23202 24.5226 3.36536 25.0253 3.54269 25.5066L3.52402 25.4493C4.09069 26.8413 5.17336 27.9253 6.52936 28.4786L6.56536 28.492C6.98936 28.6506 7.49202 28.784 8.00936 28.8706L8.05869 28.8773C8.68402 28.9867 9.42402 29.064 10.176 29.0893L10.204 29.0907C11.0449 29.1253 11.7151 29.1462 12.2147 29.1533C12.7142 29.1604 13.4471 29.1604 14.4134 29.1533L15.9974 29.1213L17.5907 29.132C18.556 29.1391 19.2889 29.1391 19.7894 29.132C20.2898 29.1249 20.96 29.104 21.8 29.0693C22.58 29.0427 23.32 28.9653 24.044 28.8426L23.9467 28.856C24.5134 28.7626 25.016 28.6293 25.4974 28.452L25.44 28.4706C26.832 27.904 27.916 26.8213 28.4694 25.4653L28.4827 25.4293C28.6414 25.0053 28.7747 24.5026 28.8614 23.9853L28.868 23.936C28.9774 23.3106 29.0547 22.5707 29.08 21.8186L29.0814 21.7906C29.116 20.9498 29.1369 20.2795 29.144 19.78C29.1511 19.2804 29.1511 18.5475 29.144 17.5813C29.1369 16.6151 29.1334 16.084 29.1334 15.988C29.1334 15.892 29.1369 15.3609 29.144 14.3946C29.1511 13.4284 29.1511 12.6955 29.144 12.196C29.1369 11.6964 29.116 11.0262 29.0814 10.1853C29.0547 9.40531 28.9774 8.66531 28.8547 7.94131L28.868 8.03865C28.7747 7.47198 28.6414 6.96931 28.464 6.48798L28.4827 6.54531C27.916 5.15331 26.8334 4.06931 25.4774 3.51598L25.4414 3.50265C25.0174 3.34398 24.5147 3.21065 23.9974 3.12398L23.948 3.11731C23.3227 3.00798 22.5827 2.93065 21.8307 2.90531L21.8027 2.90398C20.9618 2.86931 20.2916 2.84843 19.792 2.84131C19.2925 2.8342 18.5596 2.8342 17.5934 2.84131L16.0094 2.87198ZM32 16C32 19.1804 31.9645 21.3818 31.8934 22.604C31.9 22.7386 31.9054 22.896 31.9054 23.0533C31.9054 27.9427 27.9414 31.9067 23.052 31.9067C22.8934 31.9067 22.736 31.9026 22.58 31.8946L22.6014 31.896C21.3791 31.9671 19.1778 32.0027 15.9974 32.0027C12.8169 32.0027 10.6156 31.9671 9.39336 31.896C9.25869 31.9027 9.10136 31.908 8.94402 31.908C4.05469 31.908 0.0906899 27.944 0.0906899 23.0546C0.0906899 22.896 0.0946899 22.7386 0.10269 22.5826L0.101357 22.604C0.0302455 21.3818 -0.00531006 19.1804 -0.00531006 16C-0.00531006 12.8195 0.0302455 10.6182 0.101357 9.39598C0.0946899 9.26131 0.0893566 9.10398 0.0893566 8.94665C0.0893566 4.05731 4.05336 0.0933145 8.94269 0.0933145C9.10136 0.0933145 9.25869 0.0973145 9.41469 0.105314L9.39336 0.103981C10.6156 0.03287 12.8169 -0.00268555 15.9974 -0.00268555C19.1778 -0.00268555 21.3791 0.03287 22.6014 0.103981C22.736 0.0973145 22.8934 0.0919811 23.0507 0.0919811C27.94 0.0919811 31.904 4.05598 31.904 8.94531C31.904 9.10398 31.9 9.26131 31.892 9.41731L31.8934 9.39598C31.9645 10.6173 32 12.8186 32 16Z" fill="#FFB800"/>
</g>
<defs>
<clipPath id="clip0">
<rect width="32" height="32" fill="white"/>
</clipPath>
</defs>
</svg>
