<svg width="40" height="40" viewBox="0 0 40 40" fill="none" xmlns="http://www.w3.org/2000/svg">
<path d="M31 11.6H9C8.82185 12.4968 8.39075 13.3201 7.76035 13.9673C7.12995 14.6145 6.32808 15.0571 5.45455 15.24V24.76C6.32808 24.9429 7.12995 25.3855 7.76035 26.0327C8.39075 26.6799 8.82185 27.5032 9 28.4H31C31.1781 27.5032 31.6093 26.6799 32.2397 26.0327C32.8701 25.3855 33.6719 24.9429 34.5455 24.76V15.24C33.6719 15.0571 32.8701 14.6145 32.2397 13.9673C31.6093 13.3201 31.1781 12.4968 31 11.6ZM12.7273 20.9333H9.09091V19.0667H12.7273V20.9333ZM23.6364 17.2H18.1818V19.0667H22.7273C22.9684 19.0667 23.1996 19.165 23.3701 19.34C23.5406 19.5151 23.6364 19.7525 23.6364 20V23.7333C23.6364 23.9809 23.5406 24.2183 23.3701 24.3933C23.1996 24.5683 22.9684 24.6667 22.7273 24.6667H20.9091V26.5333H19.0909V24.6667H16.3636V22.8H21.8182V20.9333H17.2727C17.0316 20.9333 16.8004 20.835 16.6299 20.66C16.4594 20.4849 16.3636 20.2475 16.3636 20V16.2667C16.3636 16.0191 16.4594 15.7817 16.6299 15.6067C16.8004 15.4317 17.0316 15.3333 17.2727 15.3333H19.0909V13.4667H20.9091V15.3333H23.6364V17.2ZM30.9091 20.9333H27.2727V19.0667H30.9091V20.9333ZM37.2727 6H2.72727C2.00395 6 1.31026 6.295 0.7988 6.8201C0.287337 7.3452 0 8.05739 0 8.8V31.2C0 31.9426 0.287337 32.6548 0.7988 33.1799C1.31026 33.705 2.00395 34 2.72727 34H37.2727C37.996 34 38.6897 33.705 39.2012 33.1799C39.7127 32.6548 40 31.9426 40 31.2V8.8C40 8.05739 39.7127 7.3452 39.2012 6.8201C38.6897 6.295 37.996 6 37.2727 6ZM36.3636 25.6C36.3636 25.8475 36.2679 26.0849 36.0974 26.26C35.9269 26.435 35.6956 26.5333 35.4545 26.5333C34.7312 26.5333 34.0375 26.8283 33.5261 27.3534C33.0146 27.8785 32.7273 28.5907 32.7273 29.3333C32.7273 29.5809 32.6315 29.8183 32.461 29.9933C32.2905 30.1683 32.0593 30.2667 31.8182 30.2667H8.18182C7.94071 30.2667 7.70948 30.1683 7.53899 29.9933C7.36851 29.8183 7.27273 29.5809 7.27273 29.3333C7.27273 28.5907 6.98539 27.8785 6.47393 27.3534C5.96246 26.8283 5.26877 26.5333 4.54545 26.5333C4.30435 26.5333 4.07312 26.435 3.90263 26.26C3.73214 26.0849 3.63636 25.8475 3.63636 25.6V14.4C3.63636 14.1525 3.73214 13.9151 3.90263 13.74C4.07312 13.565 4.30435 13.4667 4.54545 13.4667C5.26877 13.4667 5.96246 13.1717 6.47393 12.6466C6.98539 12.1215 7.27273 11.4093 7.27273 10.6667C7.27273 10.4191 7.36851 10.1817 7.53899 10.0067C7.70948 9.83167 7.94071 9.73333 8.18182 9.73333H31.8182C32.0593 9.73333 32.2905 9.83167 32.461 10.0067C32.6315 10.1817 32.7273 10.4191 32.7273 10.6667C32.7273 11.4093 33.0146 12.1215 33.5261 12.6466C34.0375 13.1717 34.7312 13.4667 35.4545 13.4667C35.6956 13.4667 35.9269 13.565 36.0974 13.74C36.2679 13.9151 36.3636 14.1525 36.3636 14.4V25.6Z" fill="black"/>
</svg>
