<svg width="40" height="40" viewBox="0 0 40 40" fill="none" xmlns="http://www.w3.org/2000/svg">
<path d="M6.771 16.1433L5.11413 14.4864L0.427315 19.1732L2.08418 20.8301L6.771 16.1433Z" fill="black"/>
<path d="M20.8306 2.08081L19.1737 0.423947L14.4869 5.11075L16.1438 6.76761L20.8306 2.08081Z" fill="black"/>
<path d="M6.77002 5.1123L2.08322 0.425502L0.426354 2.08237L5.11315 6.76917L6.77002 5.1123Z" fill="black"/>
<path d="M36.6858 40.0001L24.9312 28.2455L21.6411 38.0474L9.68891 9.68896L38.0473 21.6412L28.2455 24.9313L40 36.6858L36.6858 40.0001Z" fill="black"/>
<path d="M11.7969 0H9.45312V4.76562H11.7969V0Z" fill="black"/>
<path d="M4.76562 9.45312H0V11.7969H4.76562V9.45312Z" fill="black"/>
</svg>
