<svg width="40" height="40" viewBox="0 0 40 40" fill="none" xmlns="http://www.w3.org/2000/svg">
<g clip-path="url(#clip0)">
<path d="M20.4165 3.33333H18.5832C18.0332 1.41667 16.2665 0 14.1665 0C12.0665 0 10.2998 1.41667 9.74984 3.33333H7.9165C7.23317 3.33333 6.6665 3.9 6.6665 4.58333V7.08333C6.6665 8.68333 7.98317 10 9.58317 10H18.7498C20.3498 10 21.6665 8.68333 21.6665 7.08333V4.58333C21.6665 3.9 21.0998 3.33333 20.4165 3.33333Z" fill="black"/>
<path d="M23.75 5H23.3333V7.08333C23.3333 9.61667 21.2833 11.6667 18.75 11.6667H9.58333C7.05 11.6667 5 9.61667 5 7.08333V5H4.58333C2.05 5 0 7.05 0 9.58333V30.4167C0 32.95 2.05 35 4.58333 35H16.8833L17.25 32.95C17.4167 32.0167 17.85 31.1833 18.5167 30.5L19.85 29.1667H6.25C5.56667 29.1667 5 28.6 5 27.9167C5 27.2333 5.56667 26.6667 6.25 26.6667H22.0833C22.1667 26.6667 22.2333 26.6667 22.3167 26.7H22.3333L28.3333 20.7V9.58333C28.3333 7.05 26.2833 5 23.75 5ZM22.0833 23.75H6.25C5.56667 23.75 5 23.1833 5 22.5C5 21.8167 5.56667 21.25 6.25 21.25H22.0833C22.7667 21.25 23.3333 21.8167 23.3333 22.5C23.3333 23.1833 22.7667 23.75 22.0833 23.75ZM22.0833 18.3333H6.25C5.56667 18.3333 5 17.7667 5 17.0833C5 16.4 5.56667 15.8333 6.25 15.8333H22.0833C22.7667 15.8333 23.3333 16.4 23.3333 17.0833C23.3333 17.7667 22.7667 18.3333 22.0833 18.3333Z" fill="black"/>
<path d="M20.8783 39.9999C20.5499 39.9999 20.2299 39.8699 19.9949 39.6333C19.7066 39.3449 19.5766 38.9349 19.6483 38.5316L20.5316 33.5233C20.5749 33.2716 20.6983 33.0383 20.8783 32.8566L33.2533 20.4833C34.7733 18.96 36.2666 19.3716 37.0833 20.1883L39.1449 22.25C40.2833 23.3866 40.2833 25.2366 39.1449 26.375L26.7699 38.7499C26.5899 38.9316 26.3566 39.0533 26.1033 39.0966L21.0949 39.9799C21.0233 39.9933 20.9499 39.9999 20.8783 39.9999V39.9999ZM25.8866 37.8666H25.9033H25.8866Z" fill="black"/>
</g>
<defs>
<clipPath id="clip0">
<rect width="40" height="40" fill="white"/>
</clipPath>
</defs>
</svg>
