<svg width="100" height="53" viewBox="0 0 100 53" fill="none" xmlns="http://www.w3.org/2000/svg">
<g clip-path="url(#clip0)">
<path fill-rule="evenodd" clip-rule="evenodd" d="M8.19783 41.1589C8.46826 41.9182 10.6513 45.0066 11.443 45.7735C11.452 45.7817 11.4731 45.7997 11.4807 45.8072L11.5568 45.8664C11.6539 46.0154 11.5447 45.8978 11.721 46.0865C11.9198 46.2992 11.7827 46.1734 11.9876 46.3097C12.1895 46.9672 15.513 49.5666 16.2445 50.105C17.1401 50.7648 20.4448 52.7815 21.5454 52.9867C19.8633 51.5496 19.3066 51.1475 17.7511 49.4445C17.2471 48.8933 14.8321 45.9367 14.6867 45.1946C15.6547 46.1592 18.7921 47.8015 20.1134 48.429C25.589 51.0321 32.7167 51.6028 38.636 49.9612C39.6228 49.6872 41.1407 49.2723 41.9211 48.8484C41.3509 48.7982 38.6857 49.1472 36.4093 48.9825C35.4489 48.9128 32.2044 48.5159 31.5574 48.1624C31.6591 48.113 34.5698 47.5955 35.4775 47.3237C37.2831 46.7822 37.824 46.4445 39.0006 46.0581C40.7136 45.4957 43.7885 43.5156 45.0051 42.5211C47.4729 40.5043 50.1026 37.8099 51.7131 34.9184C52.0966 34.2302 53.1655 32.4014 53.2981 31.7065C53.0698 31.833 52.0446 33.1069 51.6054 33.5622C50.3828 34.8301 47.0902 37.8803 45.6205 38.3378L47.3282 35.7302C49.7177 31.6233 51.1542 27.2064 51.2408 22.2975C51.3229 17.6874 50.6646 15.6474 49.2672 11.4132L49.2778 12.6114C49.4977 14.7443 49.3779 17.1332 49.0314 19.2458C48.9094 19.9894 48.7279 21.2288 48.468 21.5816C47.9979 19.1133 47.0638 14.754 45.674 12.7178L45.0774 11.6177C44.8047 10.9287 42.9418 8.23198 42.5403 7.99234L42.2164 7.50931C42.1983 7.49058 42.1388 7.43517 42.1215 7.41869L42.0153 7.32733C41.7034 6.56197 38.0228 3.4908 37.5475 3.14032C36.5411 2.39818 33.3517 0.330513 31.9408 0.00250244C32.0643 0.238401 33.4353 1.30855 33.8602 1.71819C35.2183 3.02799 37.9694 6.02352 38.6759 7.716L36.0455 5.9696C33.2613 4.26589 29.867 3.00477 26.4975 2.44386C23.8422 2.00127 21.1672 1.90242 18.4177 2.24166C16.8682 2.43338 12.3673 3.40543 11.4777 4.09964C12.976 4.13784 14.1496 3.73344 16.9315 3.95361C17.8874 4.02925 21.1815 4.42166 21.7917 4.77289C21.7412 4.79685 18.7115 5.35552 17.8731 5.61089C17.2787 5.79212 16.6656 5.95537 16.0901 6.17255C12.2385 7.62314 8.54359 9.78142 5.76772 12.6923C4.1263 14.414 2.80503 16.0024 1.57265 18.1255C1.22161 18.7306 0.129343 20.6792 -0.000976562 21.3584C1.30674 19.9093 1.86417 19.0855 3.46943 17.6687C4.02611 17.1774 6.91573 14.8079 7.72929 14.614C7.66676 14.8454 6.30783 16.737 6.02082 17.2014C5.41744 18.1779 5.0182 19.0586 4.5278 20.0576C1.93498 25.3425 1.43027 32.5609 3.04081 38.358C3.25474 39.1286 3.8054 41.0975 4.173 41.5708C4.20841 40.0033 3.82272 39.0478 4.02988 36.1444C4.10069 35.1543 4.49918 31.9529 4.85172 31.3178C4.93533 31.4878 5.27356 33.5105 5.35567 33.8962C5.76621 35.8223 6.95038 39.235 7.93418 40.7125L8.19557 41.1619L8.19783 41.1589ZM16.4682 41.5168C16.3356 41.254 15.8716 40.8301 15.7044 40.6287L13.6614 37.9499C13.5161 37.5365 12.5044 36.0118 11.904 34.3133C11.0822 31.988 11.2004 31.3006 10.7967 29.9765C10.4524 30.7644 10.2641 32.5624 10.2023 33.5585C10.0796 35.558 10.3116 36.3855 10.2769 37.4594C10.1594 37.0715 9.9869 36.7772 9.84904 36.3533C9.36167 34.86 9.20272 34.1119 8.9677 32.4786C8.35602 28.2234 9.40912 23.3572 11.6313 19.7648C11.9342 19.2758 12.707 18.27 12.8675 17.8469C12.1797 18.0558 10.2739 19.6105 9.80912 20.0464C8.31309 21.4505 8.32589 21.6235 7.2984 22.6892C7.60123 21.485 9.21628 19.0953 9.86486 18.264C10.8856 16.9542 12.0276 15.8474 13.3405 14.7914C15.9213 12.7148 19.0437 11.3953 23.1439 10.6883C22.148 10.1589 18.8524 10.0098 17.5251 10.0488C16.9036 10.0675 16.2083 10.1873 15.6343 10.1581C16.3793 9.93194 17.1198 9.61517 17.956 9.37403C23.2614 7.84406 30.047 8.95765 34.4779 12.2026C34.7995 12.4385 35.1091 12.601 35.3878 12.8324C35.2319 12.1816 33.6425 10.2674 33.2169 9.78217C32.4071 8.85954 31.9943 8.55849 31.1777 7.80362C30.9788 7.61939 30.6361 7.38799 30.5238 7.21799C32.7355 7.95714 35.1656 9.82411 36.792 11.4013C37.0466 11.6484 37.4044 12.0101 37.6515 12.3014C37.8119 12.4901 38.2767 13.0668 38.4221 13.1611C38.5019 13.4023 38.4349 13.269 38.5758 13.4727C38.6104 13.5236 38.6496 13.564 38.691 13.6075C38.8198 13.7408 38.74 13.6569 38.8198 13.7228C39.0225 14.0643 39.2515 14.3519 39.4985 14.7196C40.1697 15.7186 40.6774 16.7782 41.1671 17.8963C42.2006 20.256 42.0258 20.9742 42.5471 22.9603C42.8989 22.2466 43.085 20.3422 43.1505 19.3903C43.2597 17.8154 43.0428 15.9605 43.0819 15.4894L43.8676 17.8005C45.558 23.5377 43.9776 30.7337 40.3859 35.1334C40.9351 34.9971 43.0586 33.3548 43.5083 32.9369C44.4401 32.0712 45.2891 31.2085 46.0507 30.2439C45.7456 31.4376 44.1591 33.8161 43.4834 34.6616C42.361 36.0657 41.3562 37.0235 40.0108 38.1356C38.8492 39.0957 37.2477 40.0213 35.6477 40.723C33.7645 41.549 32.3641 41.7894 30.212 42.2545C31.4014 42.757 34.3513 42.9277 35.8278 42.8813C36.4266 42.8626 37.1709 42.7413 37.7268 42.7727C37.3404 42.8761 37.0451 43.0535 36.6232 43.1921C33.4722 44.2308 30.1984 44.5139 26.8847 43.953C21.2621 43.0011 19.3397 40.7365 18.0094 40.1973C18.31 41.1664 20.5488 43.6699 21.5137 44.5311L22.8674 45.7241C21.8866 45.4717 20.1593 44.3731 19.4023 43.8758C18.8305 43.5006 18.3672 43.1202 17.8716 42.7278C17.516 42.4469 16.6648 41.588 16.4682 41.5168V41.5168Z" fill="white"/>
<path fill-rule="evenodd" clip-rule="evenodd" d="M28.383 18.179L28.9901 18.7332C29.4014 19.1031 30.2105 20.0767 30.4139 20.5507C28.8787 19.3301 26.2474 18.537 24.0998 18.85C23.5167 18.9346 22.3702 19.1301 21.9755 19.4259C22.9314 19.4162 23.4919 19.3158 24.5164 19.5023C24.7265 19.5405 25.0361 19.6768 25.1785 19.6513C23.4452 20.0407 22.4335 20.2482 20.951 21.4052C20.0154 22.1354 18.6738 23.6152 18.3341 24.7752C18.4848 24.6823 19.8497 23.0325 20.719 22.7577C19.9823 23.711 19.3593 24.9969 19.0874 26.4939C18.8554 27.7707 18.939 30.1986 19.5861 31.1467C19.5763 29.8406 19.4994 29.2767 19.8068 28.0223C20.1503 28.8394 19.8414 29.8174 21.6192 32.2236C22.27 33.1035 24.0915 34.614 25.0376 34.793C24.441 34.3669 23.0987 32.944 22.936 32.4003C23.0595 32.4999 23.1717 32.5493 23.3239 32.6527C24.3642 33.3604 25.3909 33.7715 26.6934 34.0194C27.9702 34.2628 30.4515 34.1475 31.3796 33.5199C30.0485 33.5409 29.5024 33.5978 28.2414 33.2997C28.6723 33.1365 29.3013 33.1642 30.569 32.6265C31.2643 32.3314 31.9174 31.9248 32.4312 31.5256C33.3479 30.8127 34.7302 29.231 35.0089 28.1721C34.8922 28.247 34.5705 28.6477 34.4568 28.7735C34.1389 29.1247 33.0059 30.0788 32.6338 30.1866C33.3653 29.2258 33.9897 27.9677 34.2617 26.4602C34.4086 25.6476 34.4485 24.7632 34.3385 23.9334C34.2888 23.5538 34.0357 22.1489 33.7622 21.7999C33.7954 23.0842 33.8602 23.7395 33.5219 24.9549C33.4225 22.8551 31.8429 20.4998 30.267 19.2776C29.8323 18.9406 28.9788 18.3618 28.3845 18.1798L28.383 18.179ZM29.4301 13.1001L30.4093 13.9928C31.0722 14.5896 32.3762 16.1578 32.7031 16.9216C30.2293 14.9551 25.9898 13.6775 22.5284 14.1807C21.5883 14.3178 19.7405 14.6331 19.1047 15.1086C20.646 15.0936 21.5484 14.9311 23.1989 15.2314C23.5371 15.2936 24.0365 15.5123 24.2655 15.4711C21.4723 16.0994 19.8414 16.4334 17.4528 18.2973C15.9454 19.4738 13.7835 21.859 13.2358 23.7275C13.4784 23.5785 15.6788 20.9199 17.0791 20.4766C15.8927 22.0133 14.8886 24.084 14.4501 26.4976C14.0765 28.5548 14.2113 32.467 15.2539 33.9954C15.2381 31.8903 15.1145 30.9827 15.6095 28.9599C16.1639 30.2772 15.666 31.8529 18.53 35.7306C19.5778 37.1497 22.5134 39.5829 24.0388 39.8704C23.0776 39.1837 20.9141 36.8914 20.652 36.0144C20.8516 36.1747 21.0309 36.2541 21.2772 36.4211C22.9533 37.5624 24.6083 38.2244 26.7062 38.6235C28.7642 39.0152 32.7626 38.8302 34.2587 37.8177C32.1133 37.8514 31.2334 37.9443 29.2018 37.4635C29.8964 37.2007 30.9095 37.2456 32.9525 36.3784C34.0733 35.9028 35.1257 35.2476 35.9536 34.6043C37.4315 33.4555 39.6582 30.9063 40.108 29.2003C39.9196 29.3202 39.4014 29.9664 39.2168 30.1701C38.7046 30.7355 36.8786 32.2738 36.2797 32.4475C37.4586 30.8996 38.4643 28.8716 38.9019 26.443C39.1385 25.1332 39.2025 23.708 39.0262 22.3713C38.9456 21.7609 38.5381 19.4956 38.0974 18.9339C38.1524 21.0046 38.2556 22.059 37.711 24.0181C37.5498 20.6339 35.0044 16.8378 32.4658 14.869C31.7653 14.326 30.3898 13.3929 29.4316 13.1001H29.4301Z" fill="white"/>
<path fill-rule="evenodd" clip-rule="evenodd" d="M25.9221 22.2265C27.263 21.9532 28.4901 22.4355 29.3021 23.0353C32.185 25.1621 31.342 29.931 27.4649 30.7241C26.1722 30.9885 24.8494 30.5361 24.0472 29.9146C21.1161 27.6447 22.0532 23.0173 25.9221 22.2273V22.2265Z" fill="white"/>
<path d="M62.0802 21.7819C63.2418 21.7819 63.6342 21.364 63.6342 20.2512V16.9254C63.6342 16.1735 63.2704 15.8957 62.6263 15.8957H61.3525C61.1424 15.8957 61.0444 15.8402 61.0444 15.6313V13.7943C61.0444 13.6415 61.128 13.5719 61.2968 13.5719H63.5921L63.2425 11.6929H60.4425C59.4904 11.6929 59.0708 12.2082 59.0708 13.0012V16.4244C59.0708 17.4264 59.6026 17.5657 60.2045 17.5657H61.2546C61.5348 17.5657 61.6327 17.5799 61.6327 17.8577V19.6947C61.6327 19.8483 61.5762 19.9037 61.3947 19.9037H59.2109L59.5748 21.7826H62.081L62.0802 21.7819Z" fill="white"/>
<path d="M66.6568 11.692L66.125 13.5709H67.4832V21.7817H69.5547V13.5709H70.9129L70.409 11.692H66.6568Z" fill="white"/>
<path d="M77.2114 21.7817C78.373 21.7817 78.7933 21.3361 78.7933 20.2232V11.692H76.7218V19.7919C76.7218 19.9446 76.6939 20.0143 76.5259 20.0143H75.8118C75.6438 20.0143 75.616 19.9446 75.616 19.7919V11.692H73.5444V20.2232C73.5444 21.3368 73.964 21.7817 75.1263 21.7817H77.2122H77.2114Z" fill="white"/>
<path d="M84.6863 13.4593C84.8264 13.4593 84.8686 13.529 84.8686 13.654V19.8054C84.8686 19.9589 84.8408 20.0143 84.6728 20.0143H83.7206V13.4593H84.6863ZM86.8844 12.9164C86.8844 12.1787 86.4784 11.692 85.6807 11.692H81.7056V21.7817H85.3033C86.4648 21.7817 86.8852 21.3361 86.8852 20.2232V12.9171L86.8844 12.9164Z" fill="white"/>
<path d="M89.7959 21.7817H91.8253V11.692H89.7959V21.7817Z" fill="white"/>
<path d="M97.7605 13.4593C97.9006 13.4593 97.9428 13.529 97.9428 13.654V19.8054C97.9428 19.9589 97.9149 20.0143 97.747 20.0143H96.9771C96.8091 20.0143 96.7813 19.9589 96.7813 19.8054V13.654C96.7813 13.529 96.8234 13.4593 96.9635 13.4593H97.7613H97.7605ZM100 13.0003C100 12.2072 99.5797 11.692 98.6283 11.692H96.1086C95.1564 11.692 94.7368 12.2072 94.7368 13.0003V20.3483C94.7368 21.1137 95.0585 21.7817 96.1929 21.7817H98.5447C99.6784 21.7817 100.001 21.1137 100.001 20.3483V13.0003H100Z" fill="white"/>
<path d="M66.3389 43.2329L67.041 39.6098H63.2889C63.0192 39.6098 62.9378 39.4757 62.9378 39.2346V27.7759C62.9378 27.534 63.0184 27.4 63.2889 27.4H67.041L66.3661 23.7776H61.2105C59.9149 23.7776 58.916 24.6366 58.916 26.1658V40.2276C58.916 42.3747 59.7258 43.2329 61.9661 43.2329H66.3389V43.2329Z" fill="white"/>
<path d="M66.501 35.3973H72.2508L72.5205 32.204H66.7714L66.501 35.3973Z" fill="white"/>
<path d="M72.791 27.4H74.4106V39.6105H73.1413V43.2329H79.7552V39.6105H78.4324V23.7776H74.2486L72.791 27.4Z" fill="white"/>
<path d="M81.5099 23.7776L80.835 27.4H84.8568C85.1536 27.4 85.3155 27.4809 85.3155 27.883V31.5593C85.3155 31.9884 85.2078 32.0962 84.7754 32.0962H81.8331V35.4505H84.8297C85.2613 35.4505 85.3155 35.6385 85.3155 35.9335V39.1267C85.3155 39.5828 85.1265 39.6098 84.7754 39.6098H80.8613L81.5363 43.2329H86.2059C88.4462 43.2329 89.256 42.3739 89.256 40.2276V35.3704C89.256 34.3234 88.9592 33.4382 87.6364 33.4382C88.905 33.3311 89.1483 32.6062 89.1483 31.721V26.3268C89.1483 24.5557 88.5004 23.7776 86.5027 23.7776H81.5092H81.5099Z" fill="white"/>
<path d="M90.2827 27.4H95.1151L90.7957 43.2329H94.8718L99.2717 26.1928L100 23.7776H90.9577L90.2827 27.4Z" fill="white"/>
</g>
<defs>
<clipPath id="clip0">
<rect width="100" height="52.9851" fill="white"/>
</clipPath>
</defs>
</svg>
