<svg width="40" height="40" viewBox="0 0 40 40" fill="none" xmlns="http://www.w3.org/2000/svg">
<g clip-path="url(#clip0)">
<path d="M25.2321 14.5272C38.2458 14.5272 37.2844 14.5245 37.4848 14.5323C37.3671 14.0828 37.1331 13.6576 36.7814 13.3059L33.2135 9.73798C32.4425 8.96692 31.2588 8.74276 30.2678 9.18049C29.7356 9.41563 29.1015 9.29696 28.6899 8.88535C28.2783 8.47382 28.1597 7.8397 28.3947 7.30755C28.8324 6.31672 28.6084 5.13288 27.8372 4.36174L24.2693 0.793821C23.2118 -0.263591 21.4911 -0.26367 20.4336 0.793821L15.9697 5.25766C17.2277 6.51664 23.9774 13.2715 25.2321 14.5272Z" fill="black"/>
<path d="M14.3059 6.92139L6.7002 14.5271H21.9044C21.8769 14.4995 21.295 13.917 14.3059 6.92139V6.92139Z" fill="black"/>
<path d="M38.3112 27.1153C39.3213 26.7243 40 25.7287 40 24.6382V19.5924C40 18.0969 38.7832 16.8801 37.2876 16.8801H31.7646V39.9994H37.2876C38.7832 39.9994 40 38.7826 40 37.2871V32.2414C40 31.1509 39.3214 30.1553 38.3113 29.7642C37.7687 29.554 37.4041 29.0218 37.4041 28.4397C37.4041 27.8577 37.7687 27.3255 38.3112 27.1153V27.1153Z" fill="black"/>
<path d="M0 19.5924V24.6382C0 25.7287 0.678667 26.7243 1.68871 27.1153C2.23129 27.3255 2.59576 27.8577 2.59576 28.4397C2.59576 29.0218 2.23122 29.554 1.68863 29.7642C0.678588 30.1553 0 31.1509 0 32.2414V37.2871C0 38.7826 1.21678 39.9994 2.71231 39.9994H29.4118V16.8801H2.71231C1.21678 16.8801 0 18.0968 0 19.5924H0ZM8.23529 22.3524H25.8824V24.7053H8.23529V22.3524ZM8.23529 27.0582H25.8824V29.4112H8.23529V27.0582ZM8.23529 31.7641H25.8824V34.1171H8.23529V31.7641Z" fill="black"/>
</g>
<defs>
<clipPath id="clip0">
<rect width="40" height="40" fill="white"/>
</clipPath>
</defs>
</svg>
